<?xml version="1.0" encoding="UTF-8" standalone="no"?>
<!-- Created with Inkscape (http://www.inkscape.org/) -->

<svg
   xmlns:dc="http://purl.org/dc/elements/1.1/"
   xmlns:cc="http://creativecommons.org/ns#"
   xmlns:rdf="http://www.w3.org/1999/02/22-rdf-syntax-ns#"
   xmlns:svg="http://www.w3.org/2000/svg"
   xmlns="http://www.w3.org/2000/svg"
   xmlns:sodipodi="http://sodipodi.sourceforge.net/DTD/sodipodi-0.dtd"
   xmlns:inkscape="http://www.inkscape.org/namespaces/inkscape"
   width="500"
   height="220"
   viewBox="0 0 500 220"
   version="1.1"
   id="svg8"
   inkscape:version="0.92.3 (2405546, 2018-03-11)"
   sodipodi:docname="logo-header.svg"
   inkscape:export-filename="D:\Carlos Rafael\Faculdade\ESPM\Apps\DocumentManager\DocumentManager\wwwroot\images\logo-header.png"
   inkscape:export-xdpi="43.583996"
   inkscape:export-ydpi="43.583996">
  <defs
     id="defs2" />
  <sodipodi:namedview
     id="base"
     pagecolor="#ffffff"
     bordercolor="#666666"
     borderopacity="1.0"
     inkscape:pageopacity="0.0"
     inkscape:pageshadow="2"
     inkscape:zoom="0.7"
     inkscape:cx="422.58005"
     inkscape:cy="174.23675"
     inkscape:document-units="px"
     inkscape:current-layer="layer1"
     showgrid="false"
     units="px"
     inkscape:window-width="1366"
     inkscape:window-height="705"
     inkscape:window-x="-8"
     inkscape:window-y="-8"
     inkscape:window-maximized="1" />
  <metadata
     id="metadata5">
    <rdf:RDF>
      <cc:Work
         rdf:about="">
        <dc:format>image/svg+xml</dc:format>
        <dc:type
           rdf:resource="http://purl.org/dc/dcmitype/StillImage" />
        <dc:title></dc:title>
      </cc:Work>
    </rdf:RDF>
  </metadata>
  <g
     inkscape:label="Layer 1"
     inkscape:groupmode="layer"
     id="layer1"
     transform="translate(0,-238.79164)">
    <g
       id="g902"
       transform="translate(-31.626207,17.857143)">
      <path
         sodipodi:nodetypes="cscssssscccscc"
         d="m 202.25779,345.29482 c 0,-10.86308 -8.80973,-19.78343 -19.53837,-19.78343 h -47.45049 v -2.82613 c 0,-10.8632 -8.80974,-19.78354 -19.53838,-19.78354 H 87.818555 c -10.728752,0 -19.538491,8.92034 -19.538491,19.78354 v 84.78619 c 0,0.70622 0.0893,1.50137 0.0893,2.20793 l 0.436346,-0.52995 29.39489,-34.97446 c 7.06516,-8.47853 20.58515,-14.74912 31.48821,-14.74912 h 72.57124 z"
         style="font-variant:normal;font-weight:normal;font-size:medium;font-family:FontAwesome;-inkscape-font-specification:FontAwesome;writing-mode:lr-tb;fill:#f18700;fill-opacity:1;fill-rule:nonzero;stroke:none;stroke-width:11.23460388"
         id="path6007"
         inkscape:connector-curvature="0" />
      <path
         sodipodi:nodetypes="sssccsssccs"
         d="m 231.538,370.96108 c 0,-4.01703 -4.49478,-4.99915 -7.66758,-4.99915 h -95.88927 c -7.75577,0 -18.1556,4.82075 -23.26727,10.89111 l -29.612868,35.35154 c -1.410161,1.60665 -2.732134,3.74954 -2.732134,5.89196 0,4.01714 4.494774,4.99915 7.667585,4.99915 h 95.889257 c 7.75576,0 18.15559,-4.82074 23.26728,-10.89111 l 29.61286,-35.35154 c 1.41015,-1.60665 2.73214,-3.74908 2.73214,-5.89196 z"
         style="font-variant:normal;font-weight:normal;font-size:medium;font-family:FontAwesome;-inkscape-font-specification:FontAwesome;writing-mode:lr-tb;fill:#7a4500;fill-opacity:1;fill-rule:nonzero;stroke:none;stroke-width:11.35367107"
         id="path6007-6"
         inkscape:connector-curvature="0" />
      <g
         id="text1769"
         style="font-variant:normal;font-weight:normal;font-size:43.77033615px;font-family:FontAwesome;-inkscape-font-specification:FontAwesome;writing-mode:lr-tb;fill:#111111;fill-opacity:1;fill-rule:nonzero;stroke:none;stroke-width:3.12645268"
         aria-label=""
         transform="matrix(3.7677458,0,0,3.7677458,-3400.6979,-6329.5847)">
        <path
           id="path6045"
           style="fill:#111111;fill-opacity:1;stroke-width:3.12645268"
           d="m 963.14362,1778.7077 c 0,0.3664 -0.21982,0.6839 -0.43965,0.9526 l -7.18107,8.8664 c -0.83047,1.0259 -2.54025,1.832 -3.83479,1.832 h -26.57485 c -0.53736,0 -1.29455,-0.171 -1.29455,-0.8549 0,-0.3664 0.21983,-0.6839 0.43966,-0.9771 l 7.18107,-8.8664 c 0.83047,-1.0014 2.54024,-1.8075 3.83479,-1.8075 h 26.57485 c 0.53736,0 1.29454,0.171 1.29454,0.8549 z m -27.86939,-3.9813 c -2.22271,0 -4.83623,1.2457 -6.2529,2.9799 l -6.25291,7.694 v -20.8349 c 0,-1.2945 1.05029,-2.3448 2.34484,-2.3448 h 7.81613 c 1.29455,0 2.34484,1.0503 2.34484,2.3448 v 1.5632 c 0,1.2946 1.05029,2.3449 2.34484,2.3449 h 14.06904 c 1.29454,0 2.34484,1.0503 2.34484,2.3448 v 3.9081 z m 30.99585,3.9813 c 0,-0.5862 -0.12213,-1.148 -0.36638,-1.6609 -0.73277,-1.5632 -2.39369,-2.3204 -4.05462,-2.3204 h -4.68968 v -3.9081 c 0,-3.0043 -2.46697,-5.4713 -5.47129,-5.4713 h -13.28743 v -0.7816 c 0,-3.0043 -2.46696,-5.4713 -5.47129,-5.4713 h -7.81613 c -3.00433,0 -5.47129,2.467 -5.47129,5.4713 v 23.4484 c 0,3.0043 2.46696,5.4713 5.47129,5.4713 h 26.57485 c 2.19828,0 4.86065,-1.2701 6.2529,-2.9799 l 7.2055,-8.8664 c 0.65948,-0.8305 1.12357,-1.8563 1.12357,-2.9311 z"
           inkscape:connector-curvature="0" />
      </g>
    </g>
    <g
       id="g896"
       transform="matrix(0.67780276,-0.25017926,0.25017926,0.67780276,-227.92563,202.40186)">
      <path
         sodipodi:nodetypes="cccccc"
         id="path836-6"
         d="m 467.03636,286.07222 h -49.25449 v 112.58169 h 84.43627 V 321.254 Z"
         inkscape:connector-curvature="0"
         style="opacity:1;fill:#0000ff;fill-opacity:1;stroke-width:7.03635597" />
      <path
         style="fill:#000080;stroke-width:6.55583954"
         id="path838-6"
         d="m 433.77665,368.58642 h 52.44671 v 13.11168 h -52.44671 z m 0,-26.22336 h 52.44671 v 13.11168 h -52.44671 z m 39.33503,-65.55839 h -52.44671 c -7.21143,0 -13.11168,5.90025 -13.11168,13.11168 v 104.89343 c 0,7.21142 5.8347,13.11168 13.04612,13.11168 h 78.73563 c 7.21142,0 13.11168,-5.90026 13.11168,-13.11168 v -78.67007 z m 26.22336,118.00511 H 420.66497 V 289.91635 h 45.89087 v 32.7792 h 32.7792 z"
         inkscape:connector-curvature="0" />
    </g>
    <g
       id="g884"
       transform="matrix(0.71018244,-0.13284256,0.13284256,0.71018244,-101.18927,166.69891)">
      <path
         sodipodi:nodetypes="cccccc"
         id="path836-0"
         d="m 408.46493,215.35794 h -49.25449 v 112.58169 h 84.43627 v -77.39991 z"
         inkscape:connector-curvature="0"
         style="opacity:1;fill:#00ff00;fill-opacity:1;stroke-width:7.03635597" />
      <path
         style="fill:#008000;stroke-width:6.55583954"
         id="path838-4"
         d="m 375.20522,297.87214 h 52.44671 v 13.11168 h -52.44671 z m 0,-26.22336 h 52.44671 v 13.11168 h -52.44671 z m 39.33503,-65.55839 h -52.44671 c -7.21143,0 -13.11168,5.90025 -13.11168,13.11168 V 324.0955 c 0,7.21142 5.8347,13.11168 13.04612,13.11168 h 78.73563 c 7.21142,0 13.11168,-5.90026 13.11168,-13.11168 V 245.42543 Z M 440.76361,324.0955 H 362.09354 V 219.20207 h 45.89087 v 32.7792 h 32.7792 z"
         inkscape:connector-curvature="0" />
    </g>
    <g
       id="g892"
       transform="matrix(0.7225,0,0,0.7225,-68.468193,22.027168)">
      <path
         sodipodi:nodetypes="cccccc"
         id="path836-43"
         d="m 486.70388,331.96309 h -49.25449 v 112.58169 h 84.43627 v -77.39991 z"
         inkscape:connector-curvature="0"
         style="opacity:1;fill:#ffff00;fill-opacity:1;stroke-width:7.03635597" />
      <path
         style="fill:#808000;stroke-width:6.55583954"
         id="path838-62"
         d="m 453.44417,414.47729 h 52.44671 v 13.11168 h -52.44671 z m 0,-26.22336 h 52.44671 v 13.11168 h -52.44671 z m 39.33503,-65.55839 h -52.44671 c -7.21143,0 -13.11168,5.90025 -13.11168,13.11168 v 104.89343 c 0,7.21142 5.8347,13.11168 13.04612,13.11168 h 78.73563 c 7.21142,0 13.11168,-5.90026 13.11168,-13.11168 v -78.67007 z m 26.22336,118.00511 H 440.33249 V 335.80722 h 45.89087 v 32.7792 h 32.7792 z"
         inkscape:connector-curvature="0" />
    </g>
    <g
       id="g880"
       transform="matrix(0.6934273,0.20289116,-0.20289116,0.6934273,182.81803,34.518699)">
      <path
         sodipodi:nodetypes="cccccc"
         id="path836"
         d="m 320.31336,252.22598 h -49.25449 v 112.58169 h 84.43627 v -77.39991 z"
         inkscape:connector-curvature="0"
         style="opacity:1;fill:#ff0000;fill-opacity:1;stroke-width:7.03635597" />
      <path
         style="fill:#800000;stroke-width:6.55583954"
         id="path838"
         d="m 287.05365,334.74018 h 52.44671 v 13.11168 h -52.44671 z m 0,-26.22336 h 52.44671 v 13.11168 h -52.44671 z m 39.33503,-65.55839 h -52.44671 c -7.21143,0 -13.11168,5.90025 -13.11168,13.11168 v 104.89343 c 0,7.21142 5.8347,13.11168 13.04612,13.11168 h 78.73563 c 7.21142,0 13.11168,-5.90026 13.11168,-13.11168 v -78.67007 z m 26.22336,118.00511 H 273.94197 V 256.07011 h 45.89087 v 32.7792 h 32.7792 z"
         inkscape:connector-curvature="0" />
    </g>
    <g
       id="g888"
       transform="matrix(0.58442732,0.42479519,-0.42479519,0.58442732,359.01401,-34.478463)">
      <path
         sodipodi:nodetypes="cccccc"
         id="path836-4"
         d="M 353.13512,337.20718 H 303.88063 V 449.78887 H 388.3169 V 372.38896 Z"
         inkscape:connector-curvature="0"
         style="opacity:1;fill:#ff00ff;fill-opacity:1;stroke-width:7.03635597" />
      <path
         style="fill:#800080;stroke-width:6.55583954"
         id="path838-1"
         d="m 319.87541,419.72138 h 52.44671 v 13.11168 h -52.44671 z m 0,-26.22336 h 52.44671 v 13.11168 h -52.44671 z m 39.33503,-65.55839 h -52.44671 c -7.21143,0 -13.11168,5.90025 -13.11168,13.11168 v 104.89343 c 0,7.21142 5.8347,13.11168 13.04612,13.11168 h 78.73563 c 7.21142,0 13.11168,-5.90026 13.11168,-13.11168 V 367.27467 Z M 385.4338,445.94474 H 306.76373 V 341.05131 h 45.89087 v 32.7792 h 32.7792 z"
         inkscape:connector-curvature="0" />
    </g>
  </g>
</svg>
