<?xml version="1.0" encoding="UTF-8" standalone="no"?>
<!-- Created with Inkscape (http://www.inkscape.org/) -->

<svg
   xmlns:dc="http://purl.org/dc/elements/1.1/"
   xmlns:cc="http://creativecommons.org/ns#"
   xmlns:rdf="http://www.w3.org/1999/02/22-rdf-syntax-ns#"
   xmlns:svg="http://www.w3.org/2000/svg"
   xmlns="http://www.w3.org/2000/svg"
   xmlns:sodipodi="http://sodipodi.sourceforge.net/DTD/sodipodi-0.dtd"
   xmlns:inkscape="http://www.inkscape.org/namespaces/inkscape"
   width="600"
   height="220"
   viewBox="0 0 600 220"
   version="1.1"
   id="svg8"
   inkscape:version="0.92.3 (2405546, 2018-03-11)"
   sodipodi:docname="logo-main.svg">
  <defs
     id="defs2" />
  <sodipodi:namedview
     id="base"
     pagecolor="#ffffff"
     bordercolor="#666666"
     borderopacity="1.0"
     inkscape:pageopacity="0.0"
     inkscape:pageshadow="2"
     inkscape:zoom="1.4"
     inkscape:cx="221.85705"
     inkscape:cy="117.69225"
     inkscape:document-units="px"
     inkscape:current-layer="layer1"
     showgrid="false"
     units="px"
     inkscape:window-width="1366"
     inkscape:window-height="705"
     inkscape:window-x="-8"
     inkscape:window-y="-8"
     inkscape:window-maximized="1" />
  <metadata
     id="metadata5">
    <rdf:RDF>
      <cc:Work
         rdf:about="">
        <dc:format>image/svg+xml</dc:format>
        <dc:type
           rdf:resource="http://purl.org/dc/dcmitype/StillImage" />
        <dc:title />
      </cc:Work>
    </rdf:RDF>
  </metadata>
  <g
     inkscape:label="Layer 1"
     inkscape:groupmode="layer"
     id="layer1"
     transform="translate(0,-238.79164)">
    <g
       id="g832"
       transform="matrix(7.902709,0,0,7.902709,30.656197,41.275311)">
      <path
         id="path815"
         d="M 0,0 H 24 V 24 H 0 Z"
         inkscape:connector-curvature="0"
         style="fill:none" />
      <path
         id="path817"
         d="m 19.21,12.04 -1.53,-0.11 -0.3,-1.5 C 16.88,7.86 14.62,6 12,6 9.94,6 8.08,7.14 7.12,8.96 L 6.62,9.91 5.55,10.02 C 3.53,10.24 2,11.95 2,14 c 0,2.21 1.79,4 4,4 h 13 c 1.65,0 3,-1.35 3,-3 0,-1.55 -1.22,-2.86 -2.79,-2.96 z"
         inkscape:connector-curvature="0"
         style="opacity:0.3" />
      <path
         id="path819"
         d="M 19.35,10.04 C 18.67,6.59 15.64,4 12,4 9.11,4 6.6,5.64 5.35,8.04 2.34,8.36 0,10.91 0,14 c 0,3.31 2.69,6 6,6 h 13 c 2.76,0 5,-2.24 5,-5 0,-2.64 -2.05,-4.78 -4.65,-4.96 z M 19,18 H 6 C 3.79,18 2,16.21 2,14 2,11.95 3.53,10.24 5.56,10.03 L 6.63,9.92 7.13,8.97 C 8.08,7.14 9.94,6 12,6 c 2.62,0 4.88,1.86 5.39,4.43 l 0.3,1.5 1.53,0.11 c 1.56,0.1 2.78,1.41 2.78,2.96 0,1.65 -1.35,3 -3,3 z"
         inkscape:connector-curvature="0" />
    </g>
    <g
       id="g866"
       transform="translate(-49.285716,-182.14286)">
      <path
         sodipodi:nodetypes="ccccccc"
         id="path836"
         d="m 389.83284,277.49868 h -45.89087 v 104.89343 h 78.67007 v -72.11423 h -32.7792 z"
         inkscape:connector-curvature="0"
         style="opacity:0.3;stroke-width:6.55583954" />
      <path
         style="stroke-width:6.55583954"
         id="path838"
         d="m 357.05365,356.16875 h 52.44671 v 13.11168 h -52.44671 z m 0,-26.22336 h 52.44671 v 13.11168 H 357.05365 Z M 396.38868,264.387 h -52.44671 c -7.21143,0 -13.11168,5.90025 -13.11168,13.11168 v 104.89343 c 0,7.21142 5.8347,13.11168 13.04612,13.11168 h 78.73563 c 7.21142,0 13.11168,-5.90026 13.11168,-13.11168 v -78.67007 z m 26.22336,118.00511 H 343.94197 V 277.49868 h 45.89087 v 32.7792 h 32.7792 z"
         inkscape:connector-curvature="0" />
    </g>
    <path
       inkscape:connector-curvature="0"
       id="path6007"
       style="font-variant:normal;font-weight:normal;font-size:medium;font-family:FontAwesome;-inkscape-font-specification:FontAwesome;writing-mode:lr-tb;fill:#f18700;fill-opacity:1;fill-rule:nonzero;stroke:none;stroke-width:11.23460388"
       d="m 202.25779,345.29482 c 0,-10.86308 -8.80973,-19.78343 -19.53837,-19.78343 h -47.45049 v -2.82613 c 0,-10.8632 -8.80974,-19.78354 -19.53838,-19.78354 H 87.818555 c -10.728752,0 -19.538491,8.92034 -19.538491,19.78354 v 84.78619 c 0,0.70622 0.0893,1.50137 0.0893,2.20793 l 0.436346,-0.52995 29.39489,-34.97446 c 7.06516,-8.47853 20.58515,-14.74912 31.48821,-14.74912 h 72.57124 z"
       sodipodi:nodetypes="cscssssscccscc" />
    <path
       inkscape:connector-curvature="0"
       id="path6007-6"
       style="font-variant:normal;font-weight:normal;font-size:medium;font-family:FontAwesome;-inkscape-font-specification:FontAwesome;writing-mode:lr-tb;fill:#7a4500;fill-opacity:1;fill-rule:nonzero;stroke:none;stroke-width:11.35367107"
       d="m 231.538,370.96108 c 0,-4.01703 -4.49478,-4.99915 -7.66758,-4.99915 h -95.88927 c -7.75577,0 -18.1556,4.82075 -23.26727,10.89111 l -29.612868,35.35154 c -1.410161,1.60665 -2.732134,3.74954 -2.732134,5.89196 0,4.01714 4.494774,4.99915 7.667585,4.99915 h 95.889257 c 7.75576,0 18.15559,-4.82074 23.26728,-10.89111 l 29.61286,-35.35154 c 1.41015,-1.60665 2.73214,-3.74908 2.73214,-5.89196 z"
       sodipodi:nodetypes="sssccsssccs" />
    <g
       transform="matrix(3.7677458,0,0,3.7677458,-3400.6979,-6329.5847)"
       aria-label=""
       style="font-variant:normal;font-weight:normal;font-size:43.77033615px;font-family:FontAwesome;-inkscape-font-specification:FontAwesome;writing-mode:lr-tb;fill:#111111;fill-opacity:1;fill-rule:nonzero;stroke:none;stroke-width:3.12645268"
       id="text1769">
      <path
         inkscape:connector-curvature="0"
         d="m 963.14362,1778.7077 c 0,0.3664 -0.21982,0.6839 -0.43965,0.9526 l -7.18107,8.8664 c -0.83047,1.0259 -2.54025,1.832 -3.83479,1.832 h -26.57485 c -0.53736,0 -1.29455,-0.171 -1.29455,-0.8549 0,-0.3664 0.21983,-0.6839 0.43966,-0.9771 l 7.18107,-8.8664 c 0.83047,-1.0014 2.54024,-1.8075 3.83479,-1.8075 h 26.57485 c 0.53736,0 1.29454,0.171 1.29454,0.8549 z m -27.86939,-3.9813 c -2.22271,0 -4.83623,1.2457 -6.2529,2.9799 l -6.25291,7.694 v -20.8349 c 0,-1.2945 1.05029,-2.3448 2.34484,-2.3448 h 7.81613 c 1.29455,0 2.34484,1.0503 2.34484,2.3448 v 1.5632 c 0,1.2946 1.05029,2.3449 2.34484,2.3449 h 14.06904 c 1.29454,0 2.34484,1.0503 2.34484,2.3448 v 3.9081 z m 30.99585,3.9813 c 0,-0.5862 -0.12213,-1.148 -0.36638,-1.6609 -0.73277,-1.5632 -2.39369,-2.3204 -4.05462,-2.3204 h -4.68968 v -3.9081 c 0,-3.0043 -2.46697,-5.4713 -5.47129,-5.4713 h -13.28743 v -0.7816 c 0,-3.0043 -2.46696,-5.4713 -5.47129,-5.4713 h -7.81613 c -3.00433,0 -5.47129,2.467 -5.47129,5.4713 v 23.4484 c 0,3.0043 2.46696,5.4713 5.47129,5.4713 h 26.57485 c 2.19828,0 4.86065,-1.2701 6.2529,-2.9799 l 7.2055,-8.8664 c 0.65948,-0.8305 1.12357,-1.8563 1.12357,-2.9311 z"
         style="fill:#111111;stroke-width:3.12645268;fill-opacity:1"
         id="path6045" />
    </g>
    <g
       id="g6088"
       transform="translate(-485.71429,-154.28571)">
      <path
         sodipodi:nodetypes="cscssssscccscc"
         d="m 414.49167,275.3841 c 0,-10.49974 -8.62187,-19.12172 -19.12172,-19.12172 h -46.4386 v -2.73161 c 0,-10.49985 -8.62187,-19.12183 -19.12172,-19.12183 h -27.31677 c -10.49996,0 -19.12183,8.62198 -19.12183,19.12183 v 81.95032 c 0,0.6826 0.0874,1.45115 0.0874,2.13408 l 0.42704,-0.51222 28.76804,-33.80466 c 6.91449,-8.19495 20.14617,-14.2558 30.81672,-14.2558 h 71.02365 z"
         style="font-variant:normal;font-weight:normal;font-size:medium;font-family:FontAwesome;-inkscape-font-specification:FontAwesome;writing-mode:lr-tb;fill:#000000;fill-opacity:1;fill-rule:nonzero;stroke:none;stroke-width:10.92671776"
         id="path6007-4"
         inkscape:connector-curvature="0" />
      <path
         sodipodi:nodetypes="sssccsssccs"
         d="m 443.77183,304.74955 c 0,-3.84125 -4.35359,-4.7804 -7.42672,-4.7804 h -92.87709 c -7.51213,0 -17.58527,4.60981 -22.53637,10.41455 l -28.68264,33.80466 c -1.36586,1.53635 -2.64631,3.58547 -2.64631,5.63415 0,3.84136 4.35358,4.7804 7.42672,4.7804 h 92.87709 c 7.51212,0 17.58526,-4.6098 22.53637,-10.41455 l 28.68263,-33.80466 c 1.36586,-1.53635 2.64632,-3.58503 2.64632,-5.63415 z"
         style="font-variant:normal;font-weight:normal;font-size:medium;font-family:FontAwesome;-inkscape-font-specification:FontAwesome;writing-mode:lr-tb;fill:#ff0000;fill-opacity:1;fill-rule:nonzero;stroke:none;stroke-width:10.92671776"
         id="path6007-6-6"
         inkscape:connector-curvature="0" />
    </g>
  </g>
</svg>
